<?xml version="1.0" encoding="UTF-8" standalone="no"?><svg xmlns="http://www.w3.org/2000/svg" xmlns:xlink="http://www.w3.org/1999/xlink" contentScriptType="application/ecmascript" contentStyleType="text/css" height="1452px" preserveAspectRatio="none" style="width:1488px;height:1452px;" version="1.1" viewBox="0 0 1488 1452" width="1488px" zoomAndPan="magnify"><defs/><g><!--MD5=[686dbe81d992c4fd6b530237d3a02122]
entity _account_balance_card_component--><rect fill="#F8F8F8" height="33.9688" rx="3" ry="3" style="stroke: #000000; stroke-width: 0.5;" width="228" x="397.071" y="578"/><text fill="#000000" font-family="Tahoma, sans-serif" font-size="12" lengthAdjust="spacingAndGlyphs" textLength="208" x="407.071" y="599.1387">account-balance-card.component</text><ellipse cx="511.3021" cy="524.2462" fill="#F8F8F8" rx="149.2311" ry="32.2462" style="stroke: #383838; stroke-width: 0.5;"/><text fill="#000000" font-family="Tahoma, sans-serif" font-size="12" font-weight="bold" lengthAdjust="spacingAndGlyphs" textLength="284" x="369.3021" y="527.7306">account-balance-card.component.spec</text><!--MD5=[8293371ab84e7d9531b58113deab7d37]
entity _account_data_service--><rect fill="#F8F8F8" height="33.9688" rx="3" ry="3" style="stroke: #000000; stroke-width: 0.5;" width="151" x="949.571" y="740"/><text fill="#000000" font-family="Tahoma, sans-serif" font-size="12" lengthAdjust="spacingAndGlyphs" textLength="131" x="959.571" y="761.1387">account-data.service</text><!--MD5=[469e70dc70221f6e57a63188ea3563ab]
entity _account_info_card_component--><rect fill="#F8F8F8" height="33.9688" rx="3" ry="3" style="stroke: #000000; stroke-width: 0.5;" width="201" x="410.571" y="878"/><text fill="#000000" font-family="Tahoma, sans-serif" font-size="12" lengthAdjust="spacingAndGlyphs" textLength="181" x="420.571" y="899.1387">account-info-card.component</text><ellipse cx="511.2493" cy="826.0357" fill="#F8F8F8" rx="135.6783" ry="29.5357" style="stroke: #383838; stroke-width: 0.5;"/><text fill="#000000" font-family="Tahoma, sans-serif" font-size="12" font-weight="bold" lengthAdjust="spacingAndGlyphs" textLength="256" x="383.2493" y="829.52">account-info-card.component.spec</text><!--MD5=[7c80001475c5782ba658d7cb5a73c1aa]
entity _account_page_facade_service--><rect fill="#F8F8F8" height="33.9688" rx="3" ry="3" style="stroke: #000000; stroke-width: 0.5;" width="200" x="704.071" y="740"/><text fill="#000000" font-family="Tahoma, sans-serif" font-size="12" lengthAdjust="spacingAndGlyphs" textLength="180" x="714.071" y="761.1387">account-page.facade.service</text><!--MD5=[61bdc24438aaf9b649cf049c86b44b06]
entity _account_routing_module--><rect fill="#F8F8F8" height="33.9688" rx="3" ry="3" style="stroke: #000000; stroke-width: 0.5;" width="165" x="98.071" y="796"/><text fill="#000000" font-family="Tahoma, sans-serif" font-size="12" lengthAdjust="spacingAndGlyphs" textLength="145" x="108.071" y="817.1387">account-routing.module</text><!--MD5=[d8cb65068020a9b86b435bdd50d7f326]
entity _account_model--><rect fill="#F8F8F8" height="33.9688" rx="3" ry="3" style="stroke: #000000; stroke-width: 0.5;" width="110" x="1170.57" y="791"/><text fill="#000000" font-family="Tahoma, sans-serif" font-size="12" lengthAdjust="spacingAndGlyphs" textLength="90" x="1180.57" y="812.1387">account.model</text><!--MD5=[74de2eeac13f867c90abc22d5460c7d2]
entity _account_module--><rect fill="#F8F8F8" height="33.9688" rx="3" ry="3" style="stroke: #000000; stroke-width: 0.5;" width="135" x="113.071" y="740"/><text fill="#000000" font-family="Tahoma, sans-serif" font-size="12" font-weight="bold" lengthAdjust="spacingAndGlyphs" textLength="115" x="123.071" y="761.1387">account.module</text><!--MD5=[7a32c77b4cc0b1c5923b4d3df04c7d8f]
entity _account_page--><rect fill="#F8F8F8" height="33.9688" rx="3" ry="3" style="stroke: #000000; stroke-width: 0.5;" width="104" x="459.071" y="740"/><text fill="#000000" font-family="Tahoma, sans-serif" font-size="12" lengthAdjust="spacingAndGlyphs" textLength="84" x="469.071" y="761.1387">account.page</text><ellipse cx="510.9591" cy="698.8776" fill="#F8F8F8" rx="79.8881" ry="18.3776" style="stroke: #383838; stroke-width: 0.5;"/><text fill="#000000" font-family="Tahoma, sans-serif" font-size="12" font-weight="bold" lengthAdjust="spacingAndGlyphs" textLength="137" x="442.4591" y="702.362">account.page.spec</text><!--MD5=[cba1910c10abf5ef593c40682bf056a6]
entity _app_routing_module--><rect fill="#F8F8F8" height="33.9688" rx="3" ry="3" style="stroke: #000000; stroke-width: 0.5;" width="140" x="441.071" y="380"/><text fill="#000000" font-family="Tahoma, sans-serif" font-size="12" lengthAdjust="spacingAndGlyphs" textLength="120" x="451.071" y="401.1387">app-routing.module</text><!--MD5=[b08ed6e5409dbdfff72b75dc12292bd0]
entity _app_component--><rect fill="#F8F8F8" height="33.9688" rx="3" ry="3" style="stroke: #000000; stroke-width: 0.5;" width="116" x="453.071" y="324"/><text fill="#000000" font-family="Tahoma, sans-serif" font-size="12" lengthAdjust="spacingAndGlyphs" textLength="96" x="463.071" y="345.1387">app.component</text><ellipse cx="511.3027" cy="282.0463" fill="#F8F8F8" rx="85.7317" ry="19.5463" style="stroke: #383838; stroke-width: 0.5;"/><text fill="#000000" font-family="Tahoma, sans-serif" font-size="12" font-weight="bold" lengthAdjust="spacingAndGlyphs" textLength="150" x="436.3027" y="285.5307">app.component.spec</text><!--MD5=[a2785d03199c592de6063576bb7e3eae]
entity _app_module--><rect fill="#F8F8F8" height="33.9688" rx="3" ry="3" style="stroke: #000000; stroke-width: 0.5;" width="92" x="134.571" y="380"/><text fill="#000000" font-family="Tahoma, sans-serif" font-size="12" lengthAdjust="spacingAndGlyphs" textLength="72" x="144.571" y="401.1387">app.module</text><!--MD5=[04fa53bb047ce1f61989877a6eef0960]
entity _auth_intersector--><rect fill="#F8F8F8" height="33.9688" rx="3" ry="3" style="stroke: #000000; stroke-width: 0.5;" width="118" x="966.071" y="888"/><text fill="#000000" font-family="Tahoma, sans-serif" font-size="12" lengthAdjust="spacingAndGlyphs" textLength="98" x="976.071" y="909.1387">auth.intersector</text><!--MD5=[e2b932e41919c0199308f833dd59d992]
entity _auth_service--><rect fill="#F8F8F8" height="33.9688" rx="3" ry="3" style="stroke: #000000; stroke-width: 0.5;" width="95" x="1178.07" y="888"/><text fill="#000000" font-family="Tahoma, sans-serif" font-size="12" lengthAdjust="spacingAndGlyphs" textLength="75" x="1188.07" y="909.1387">auth.service</text><!--MD5=[799c852d204ce14511134a1cc282e665]
entity _backend_services--><rect fill="#F8F8F8" height="33.9688" rx="3" ry="3" style="stroke: #000000; stroke-width: 0.5;" width="128" x="1349.07" y="939"/><text fill="#000000" font-family="Tahoma, sans-serif" font-size="12" lengthAdjust="spacingAndGlyphs" textLength="108" x="1359.07" y="960.1387">backend.services</text><!--MD5=[48cd80b5a89f65732cc7688c33e6d3c3]
entity _core_module--><rect fill="#F8F8F8" height="33.9688" rx="3" ry="3" style="stroke: #000000; stroke-width: 0.5;" width="96" x="463.071" y="436"/><text fill="#000000" font-family="Tahoma, sans-serif" font-size="12" lengthAdjust="spacingAndGlyphs" textLength="76" x="473.071" y="457.1387">core.module</text><!--MD5=[a2352267f1f65f03d4cc38af0bf018c1]
entity _current_balance_model--><rect fill="#F8F8F8" height="33.9688" rx="3" ry="3" style="stroke: #000000; stroke-width: 0.5;" width="159" x="1146.07" y="689"/><text fill="#000000" font-family="Tahoma, sans-serif" font-size="12" lengthAdjust="spacingAndGlyphs" textLength="139" x="1156.07" y="710.1387">current-balance.model</text><!--MD5=[9953cfceafbd4e02b1509f6990a77a2c]
entity _data_providers_module--><rect fill="#F8F8F8" height="33.9688" rx="3" ry="3" style="stroke: #000000; stroke-width: 0.5;" width="161" x="430.571" y="934"/><text fill="#000000" font-family="Tahoma, sans-serif" font-size="12" lengthAdjust="spacingAndGlyphs" textLength="141" x="440.571" y="955.1387">data-providers.module</text><ellipse cx="180.6805" cy="343.8219" fill="#F8F8F8" rx="54.6095" ry="13.3219" style="stroke: #383838; stroke-width: 0.5;"/><text fill="#000000" font-family="Tahoma, sans-serif" font-size="12" lengthAdjust="spacingAndGlyphs" textLength="76" x="142.6805" y="347.3063">environment</text><ellipse cx="180.3581" cy="25.7574" fill="#F8F8F8" rx="76.7871" ry="17.7574" style="stroke: #383838; stroke-width: 0.5;"/><text fill="#000000" font-family="Tahoma, sans-serif" font-size="12" font-weight="bold" lengthAdjust="spacingAndGlyphs" textLength="130" x="115.3581" y="29.2418">environment.prod</text><!--MD5=[8604f85028611cf26467900f9365ca10]
entity _folder_routing_module--><rect fill="#F8F8F8" height="33.9688" rx="3" ry="3" style="stroke: #000000; stroke-width: 0.5;" width="152" x="104.571" y="226"/><text fill="#000000" font-family="Tahoma, sans-serif" font-size="12" lengthAdjust="spacingAndGlyphs" textLength="132" x="114.571" y="247.1387">folder-routing.module</text><!--MD5=[a8ead34c17d2695b93d74fc547d1a4fe]
entity _folder_module--><rect fill="#F8F8F8" height="33.9688" rx="3" ry="3" style="stroke: #000000; stroke-width: 0.5;" width="121" x="120.071" y="170"/><text fill="#000000" font-family="Tahoma, sans-serif" font-size="12" font-weight="bold" lengthAdjust="spacingAndGlyphs" textLength="101" x="130.071" y="191.1387">folder.module</text><!--MD5=[1b7ac96b5e314b9d1c31622d1c3b4979]
entity _folder_page--><rect fill="#F8F8F8" height="33.9688" rx="3" ry="3" style="stroke: #000000; stroke-width: 0.5;" width="91" x="465.571" y="188"/><text fill="#000000" font-family="Tahoma, sans-serif" font-size="12" lengthAdjust="spacingAndGlyphs" textLength="71" x="475.571" y="209.1387">folder.page</text><ellipse cx="180.6126" cy="294.8774" fill="#F8F8F8" rx="27.0416" ry="12.8774" style="stroke: #383838; stroke-width: 0.5;"/><text fill="#000000" font-family="Tahoma, sans-serif" font-size="12" font-weight="bold" lengthAdjust="spacingAndGlyphs" textLength="34" x="163.6126" y="298.3618">main</text><!--MD5=[bd74b1e330ee9824ad7c0a48162f8a96]
entity _nx_welcome_component--><rect fill="#F8F8F8" height="33.9688" rx="3" ry="3" style="stroke: #000000; stroke-width: 0.5;" width="190" x="85.571" y="66"/><text fill="#000000" font-family="Tahoma, sans-serif" font-size="12" font-weight="bold" lengthAdjust="spacingAndGlyphs" textLength="170" x="95.571" y="87.1387">nx-welcome.component</text><ellipse cx="180.3761" cy="134.8774" fill="#F8F8F8" rx="43.3051" ry="12.8774" style="stroke: #383838; stroke-width: 0.5;"/><text fill="#000000" font-family="Tahoma, sans-serif" font-size="12" font-weight="bold" lengthAdjust="spacingAndGlyphs" textLength="57" x="151.8761" y="138.3618">polyfills</text><!--MD5=[f55419c760f130e479f23619ff2831dc]
entity _server_card_list_item_component--><rect fill="#F8F8F8" height="33.9688" rx="3" ry="3" style="stroke: #000000; stroke-width: 0.5;" width="220" x="401.071" y="1178"/><text fill="#000000" font-family="Tahoma, sans-serif" font-size="12" lengthAdjust="spacingAndGlyphs" textLength="200" x="411.071" y="1199.1387">server-card-list-item.component</text><ellipse cx="510.9058" cy="1124.067" fill="#F8F8F8" rx="145.8348" ry="31.567" style="stroke: #383838; stroke-width: 0.5;"/><text fill="#000000" font-family="Tahoma, sans-serif" font-size="12" font-weight="bold" lengthAdjust="spacingAndGlyphs" textLength="277" x="372.4058" y="1127.5513">server-card-list-item.component.spec</text><!--MD5=[f233777f1027626d6ee6e53a4b309a65]
entity _server_model--><rect fill="#F8F8F8" height="33.9688" rx="3" ry="3" style="stroke: #000000; stroke-width: 0.5;" width="101" x="1175.07" y="1202"/><text fill="#000000" font-family="Tahoma, sans-serif" font-size="12" lengthAdjust="spacingAndGlyphs" textLength="81" x="1185.07" y="1223.1387">server.model</text><!--MD5=[47a27079f9a5d83bb3af89f58005d812]
entity _servers_data_servece--><rect fill="#F8F8F8" height="33.9688" rx="3" ry="3" style="stroke: #000000; stroke-width: 0.5;" width="154" x="948.071" y="1058"/><text fill="#000000" font-family="Tahoma, sans-serif" font-size="12" lengthAdjust="spacingAndGlyphs" textLength="134" x="958.071" y="1079.1387">servers-data.servece</text><!--MD5=[bc6206ec9ebb094ed9d87735f26a87d3]
entity _servers_page_facade_service--><rect fill="#F8F8F8" height="33.9688" rx="3" ry="3" style="stroke: #000000; stroke-width: 0.5;" width="200" x="704.071" y="1229"/><text fill="#000000" font-family="Tahoma, sans-serif" font-size="12" lengthAdjust="spacingAndGlyphs" textLength="180" x="714.071" y="1250.1387">servers-page-facade.service</text><!--MD5=[8b6f534726c261e8b543a58332d1758f]
entity _servers_routing_module--><rect fill="#F8F8F8" height="33.9688" rx="3" ry="3" style="stroke: #000000; stroke-width: 0.5;" width="163" x="99.071" y="1292"/><text fill="#000000" font-family="Tahoma, sans-serif" font-size="12" lengthAdjust="spacingAndGlyphs" textLength="143" x="109.071" y="1313.1387">servers-routing.module</text><!--MD5=[646baba4e92c19a8cb2d5d635aeff65e]
entity _servers_module--><rect fill="#F8F8F8" height="33.9688" rx="3" ry="3" style="stroke: #000000; stroke-width: 0.5;" width="132" x="114.571" y="1039"/><text fill="#000000" font-family="Tahoma, sans-serif" font-size="12" font-weight="bold" lengthAdjust="spacingAndGlyphs" textLength="112" x="124.571" y="1060.1387">servers.module</text><!--MD5=[84ac6b6876fe21ee425f8ebf426348f8]
entity _servers_page--><rect fill="#F8F8F8" height="33.9688" rx="3" ry="3" style="stroke: #000000; stroke-width: 0.5;" width="102" x="460.071" y="1292"/><text fill="#000000" font-family="Tahoma, sans-serif" font-size="12" lengthAdjust="spacingAndGlyphs" textLength="82" x="470.071" y="1313.1387">servers.page</text><ellipse cx="511.1259" cy="1252.111" fill="#F8F8F8" rx="78.5549" ry="18.111" style="stroke: #383838; stroke-width: 0.5;"/><text fill="#000000" font-family="Tahoma, sans-serif" font-size="12" font-weight="bold" lengthAdjust="spacingAndGlyphs" textLength="134" x="444.1259" y="1255.5953">servers.page.spec</text><!--MD5=[248326c9530a51d0b1379e04a3254e3f]
entity _settings_edit_form_component--><rect fill="#F8F8F8" height="33.9688" rx="3" ry="3" style="stroke: #000000; stroke-width: 0.5;" width="204" x="78.571" y="1236"/><text fill="#000000" font-family="Tahoma, sans-serif" font-size="12" lengthAdjust="spacingAndGlyphs" textLength="184" x="88.571" y="1257.1387">settings-edit-form.component</text><ellipse cx="180.6798" cy="1183.9218" fill="#F8F8F8" rx="137.6088" ry="29.9218" style="stroke: #383838; stroke-width: 0.5;"/><text fill="#000000" font-family="Tahoma, sans-serif" font-size="12" font-weight="bold" lengthAdjust="spacingAndGlyphs" textLength="260" x="50.6798" y="1187.4061">settings-edit-form.component.spec</text><!--MD5=[ab6bb2d9609ed95cab138bc4f531c732]
entity _settings_routing_module--><rect fill="#F8F8F8" height="33.9688" rx="3" ry="3" style="stroke: #000000; stroke-width: 0.5;" width="166" x="97.571" y="1378"/><text fill="#000000" font-family="Tahoma, sans-serif" font-size="12" lengthAdjust="spacingAndGlyphs" textLength="146" x="107.571" y="1399.1387">settings-routing.module</text><!--MD5=[8db7cc3a0b58f11d5e6fee24ad6c3435]
entity _settings_facade_service--><rect fill="#F8F8F8" height="33.9688" rx="3" ry="3" style="stroke: #000000; stroke-width: 0.5;" width="193" x="414.571" y="9"/><text fill="#000000" font-family="Tahoma, sans-serif" font-size="12" font-weight="bold" lengthAdjust="spacingAndGlyphs" textLength="173" x="424.571" y="30.1387">settings.facade.service</text><!--MD5=[eac8f3fb4d7439555cbb7dfd04028889]
entity _settings_module--><rect fill="#F8F8F8" height="33.9688" rx="3" ry="3" style="stroke: #000000; stroke-width: 0.5;" width="137" x="112.071" y="1098"/><text fill="#000000" font-family="Tahoma, sans-serif" font-size="12" font-weight="bold" lengthAdjust="spacingAndGlyphs" textLength="117" x="122.071" y="1119.1387">settings.module</text><!--MD5=[f9126a365e9e086728c0787eaa4e4ecc]
entity _settings_page--><rect fill="#F8F8F8" height="33.9688" rx="3" ry="3" style="stroke: #000000; stroke-width: 0.5;" width="105" x="458.571" y="1408"/><text fill="#000000" font-family="Tahoma, sans-serif" font-size="12" lengthAdjust="spacingAndGlyphs" textLength="85" x="468.571" y="1429.1387">settings.page</text><ellipse cx="510.8514" cy="1367.0561" fill="#F8F8F8" rx="80.7804" ry="18.5561" style="stroke: #383838; stroke-width: 0.5;"/><text fill="#000000" font-family="Tahoma, sans-serif" font-size="12" font-weight="bold" lengthAdjust="spacingAndGlyphs" textLength="139" x="441.3514" y="1370.5405">settings.page.spec</text><!--MD5=[952bd827df77450c92d286fe2ea1ca11]
entity _shared_module--><rect fill="#F8F8F8" height="33.9688" rx="3" ry="3" style="stroke: #000000; stroke-width: 0.5;" width="111" x="455.571" y="1036"/><text fill="#000000" font-family="Tahoma, sans-serif" font-size="12" lengthAdjust="spacingAndGlyphs" textLength="91" x="465.571" y="1057.1387">shared.module</text><!--MD5=[9ff22bbf3acc695984ba955e2f664682]
entity _storage_service--><rect fill="#F8F8F8" height="33.9688" rx="3" ry="3" style="stroke: #000000; stroke-width: 0.5;" width="135" x="443.571" y="65"/><text fill="#000000" font-family="Tahoma, sans-serif" font-size="12" font-weight="bold" lengthAdjust="spacingAndGlyphs" textLength="115" x="453.571" y="86.1387">storage.service</text><ellipse cx="511.2947" cy="135.0447" fill="#F8F8F8" rx="55.7237" ry="13.5447" style="stroke: #383838; stroke-width: 0.5;"/><text fill="#000000" font-family="Tahoma, sans-serif" font-size="12" font-weight="bold" lengthAdjust="spacingAndGlyphs" textLength="79" x="471.7947" y="138.5291">test-setup</text><!--MD5=[5ca8fa38f4690add96c69d72e269632f]
link _account_balance_card_component to _current_balance_model--><path d="M621.449,612.04 C764.387,634.308 1011.64,672.827 1140.69,692.932 " fill="none" id="_account_balance_card_component-&gt;_current_balance_model" style="stroke: #000000; stroke-width: 0.5;"/><polygon fill="#000000" points="1145.98,693.757,1137.6896,688.44,1141.0377,692.9997,1136.478,696.3478,1145.98,693.757" style="stroke: #000000; stroke-width: 0.5;"/><!--MD5=[29a0328b896df93e99fcd1ea5680121f]
link <b>account-balance-card.component.spec</b> to _account_balance_card_component--><path d="M511.071,556.367 C511.071,561.838 511.071,567.309 511.071,572.78 " fill="none" id="&lt;b&gt;account-balance-card.component.spec&lt;/b&gt;-&gt;_account_balance_card_component" style="stroke: #000000; stroke-width: 1.0;"/><polygon fill="#000000" points="511.071,577.805,515.071,568.805,511.071,572.805,507.071,568.805,511.071,577.805" style="stroke: #000000; stroke-width: 1.0;"/><!--MD5=[ba30958dc130671ac691f30948fe1543]
link _account_data_service to _account_model--><path d="M1092.44,774.053 C1116.12,780.136 1142.61,786.941 1165.62,792.853 " fill="none" id="_account_data_service-&gt;_account_model" style="stroke: #000000; stroke-width: 0.5;"/><polygon fill="#000000" points="1170.47,794.1,1162.7468,787.9883,1165.6269,792.8571,1160.7582,795.7372,1170.47,794.1" style="stroke: #000000; stroke-width: 0.5;"/><!--MD5=[d88e4b61f97e64c2adf30b8ef3cc2ff1]
link _account_data_service to _backend_services--><path d="M1100.77,745.614 C1160.47,740.42 1243.98,742.258 1305.07,780 C1362.86,815.704 1393.81,895.336 1405.92,934.04 " fill="none" id="_account_data_service-&gt;_backend_services" style="stroke: #000000; stroke-width: 0.5;"/><polygon fill="#000000" points="1407.44,938.998,1408.6291,929.2212,1405.9758,934.2172,1400.9798,931.5639,1407.44,938.998" style="stroke: #000000; stroke-width: 0.5;"/><!--MD5=[fcdb0fd4ebbd9858d974df3074fd1984]
link _account_data_service to _current_balance_model--><path d="M1092.44,739.947 C1111.98,734.928 1133.43,729.417 1153.26,724.323 " fill="none" id="_account_data_service-&gt;_current_balance_model" style="stroke: #000000; stroke-width: 0.5;"/><polygon fill="#000000" points="1158.26,723.037,1148.5482,721.3998,1153.4169,724.2799,1150.5368,729.1487,1158.26,723.037" style="stroke: #000000; stroke-width: 0.5;"/><!--MD5=[5b7ddc8c30398460f69f583563666bb8]
link _account_info_card_component to _account_model--><path d="M611.891,882.811 C762.614,864.407 1043.61,830.096 1165.56,815.205 " fill="none" id="_account_info_card_component-&gt;_account_model" style="stroke: #000000; stroke-width: 0.5;"/><polygon fill="#000000" points="1170.54,814.597,1161.125,811.7061,1165.5761,815.1971,1162.0852,819.6483,1170.54,814.597" style="stroke: #000000; stroke-width: 0.5;"/><!--MD5=[f3686da1009a25062dbed45813408fe1]
link <b>account-info-card.component.spec</b> to _account_info_card_component--><path d="M511.071,855.514 C511.071,861.189 511.071,866.863 511.071,872.538 " fill="none" id="&lt;b&gt;account-info-card.component.spec&lt;/b&gt;-&gt;_account_info_card_component" style="stroke: #000000; stroke-width: 1.0;"/><polygon fill="#000000" points="511.071,877.75,515.071,868.75,511.071,872.75,507.071,868.75,511.071,877.75" style="stroke: #000000; stroke-width: 1.0;"/><!--MD5=[471826e2c2576885441a04d0a41cce39]
link _account_page_facade_service to _account_data_service--><path d="M904.319,757 C917.707,757 931.301,757 944.291,757 " fill="none" id="_account_page_facade_service-&gt;_account_data_service" style="stroke: #000000; stroke-width: 0.5;"/><polygon fill="#000000" points="949.431,757,940.431,753,944.431,757,940.431,761,949.431,757" style="stroke: #000000; stroke-width: 0.5;"/><!--MD5=[d8316d78ed9910c777c65baa3900a91a]
link _account_page_facade_service to _account_model--><path d="M883.856,774.044 C904.661,778.1 927.149,782.091 948.071,785 C1022.63,795.369 1109.21,801.649 1165.34,804.969 " fill="none" id="_account_page_facade_service-&gt;_account_model" style="stroke: #000000; stroke-width: 0.5;"/><polygon fill="#000000" points="1170.33,805.262,1161.5862,800.7293,1165.339,804.962,1161.1062,808.7148,1170.33,805.262" style="stroke: #000000; stroke-width: 0.5;"/><!--MD5=[992c286764574b114b0b6afcb43e841a]
link _account_page_facade_service to _current_balance_model--><path d="M883.856,739.956 C904.661,735.9 927.149,731.909 948.071,729 C1012.43,720.05 1085.74,714.146 1140.69,710.563 " fill="none" id="_account_page_facade_service-&gt;_current_balance_model" style="stroke: #000000; stroke-width: 0.5;"/><polygon fill="#000000" points="1145.95,710.223,1136.7066,706.823,1140.9608,710.5515,1137.2323,714.8057,1145.95,710.223" style="stroke: #000000; stroke-width: 0.5;"/><!--MD5=[708910dad175e50cf1f0e0d62c4fab49]
link _account_routing_module to _account_page--><path d="M263.195,799.085 C322.469,788.981 401.155,775.567 453.597,766.627 " fill="none" id="_account_routing_module-&gt;_account_page" style="stroke: #000000; stroke-width: 0.5;"/><polygon fill="#000000" points="458.589,765.776,449.045,763.3445,453.66,766.6158,450.3887,771.2309,458.589,765.776" style="stroke: #000000; stroke-width: 0.5;"/><!--MD5=[070c36d5dab3e2ae9744f5becbc256f7]
link _account_module to _account_balance_card_component--><path d="M200.303,739.855 C231.48,712.26 297.04,658.144 362.071,629 C375.904,622.8 390.99,617.67 406.068,613.443 " fill="none" id="_account_module-&gt;_account_balance_card_component" style="stroke: #000000; stroke-width: 1.0;"/><polygon fill="#000000" points="411.179,612.043,401.4418,610.5642,406.3568,613.3646,403.5564,618.2797,411.179,612.043" style="stroke: #000000; stroke-width: 1.0;"/><!--MD5=[643a34610f54c87a9860d24ef65f9526]
link _account_module to _account_data_service--><path d="M207.394,739.905 C241.239,718.624 303.231,683.44 362.071,670 C586.725,618.684 861.67,699.528 973.329,738.222 " fill="none" id="_account_module-&gt;_account_data_service" style="stroke: #000000; stroke-width: 1.0;"/><polygon fill="#000000" points="978.2,739.919,971.018,733.1796,973.4786,738.2733,968.3849,740.7339,978.2,739.919" style="stroke: #000000; stroke-width: 1.0;"/><!--MD5=[55dec9a65da54f366420482b370e4700]
link _account_module to _account_info_card_component--><path d="M248.15,759.097 C272.091,762.673 298.09,770.113 318.071,785 C351.238,809.71 328.716,842.545 362.071,867 C374.876,876.388 389.933,882.898 405.453,887.367 " fill="none" id="_account_module-&gt;_account_info_card_component" style="stroke: #000000; stroke-width: 1.0;"/><polygon fill="#000000" points="410.282,888.69,402.6589,882.4539,405.4597,887.3687,400.5449,890.1695,410.282,888.69" style="stroke: #000000; stroke-width: 1.0;"/><!--MD5=[62d444b201c2662f14b122d7e8af270b]
link _account_module to _account_routing_module--><path d="M180.571,774.035 C180.571,779.625 180.571,785.214 180.571,790.804 " fill="none" id="_account_module-&gt;_account_routing_module" style="stroke: #000000; stroke-width: 1.0;"/><polygon fill="#000000" points="180.571,795.938,184.571,786.938,180.571,790.938,176.571,786.938,180.571,795.938" style="stroke: #000000; stroke-width: 1.0;"/><!--MD5=[a76899a6648f68d1f725d2e5f01b3327]
link _account_module to _account_page--><path d="M248.444,757 C308.901,757 396.905,757 453.825,757 " fill="none" id="_account_module-&gt;_account_page" style="stroke: #000000; stroke-width: 1.0;"/><polygon fill="#000000" points="458.892,757,449.892,753,453.892,757,449.892,761,458.892,757" style="stroke: #000000; stroke-width: 1.0;"/><!--MD5=[1d6e3ee4d0bbc784b9527e41ea7bfd50]
link _account_module to _data_providers_module--><path d="M248.302,757.009 C272.823,760.257 299.181,768.019 318.071,785 C365.946,828.037 313.867,880.331 362.071,923 C379.456,938.389 402.584,946.471 425.38,950.464 " fill="none" id="_account_module-&gt;_data_providers_module" style="stroke: #000000; stroke-width: 1.0;"/><polygon fill="#000000" points="430.544,951.302,422.3014,945.9112,425.6086,950.5006,421.0193,953.8078,430.544,951.302" style="stroke: #000000; stroke-width: 1.0;"/><!--MD5=[cca9513ac4f2a4267410e9134959b834]
link _account_module to _shared_module--><path d="M248.375,756.093 C273.201,759.172 299.752,767.056 318.071,785 C381.232,846.866 307.509,909.432 362.071,979 C384.116,1007.108 419.664,1025.369 450.395,1036.718 " fill="none" id="_account_module-&gt;_shared_module" style="stroke: #000000; stroke-width: 1.0;"/><polygon fill="#000000" points="455.283,1038.481,448.1727,1031.6661,450.5793,1036.7855,445.4598,1039.1921,455.283,1038.481" style="stroke: #000000; stroke-width: 1.0;"/><!--MD5=[7afa64226fb6afa9781c7b33d8d17891]
link _account_page to _account_page_facade_service--><path d="M563.092,757 C600.523,757 652.651,757 698.763,757 " fill="none" id="_account_page-&gt;_account_page_facade_service" style="stroke: #000000; stroke-width: 0.5;"/><polygon fill="#000000" points="703.779,757,694.779,753,698.779,757,694.779,761,703.779,757" style="stroke: #000000; stroke-width: 0.5;"/><!--MD5=[8eaae60f31869c0ac334d0c783dfce6d]
link <b>account.page.spec</b> to _account_page--><path d="M511.071,717.798 C511.071,723.408 511.071,729.018 511.071,734.629 " fill="none" id="&lt;b&gt;account.page.spec&lt;/b&gt;-&gt;_account_page" style="stroke: #000000; stroke-width: 1.0;"/><polygon fill="#000000" points="511.071,739.781,515.071,730.781,511.071,734.781,507.071,730.781,511.071,739.781" style="stroke: #000000; stroke-width: 1.0;"/><!--MD5=[28b2179fec912235622d4b03e22b6819]
link <b>app.component.spec</b> to _app_component--><path d="M511.071,301.66 C511.071,307.35 511.071,313.04 511.071,318.72 " fill="none" id="&lt;b&gt;app.component.spec&lt;/b&gt;-&gt;_app_component" style="stroke: #000000; stroke-width: 1.0;"/><polygon fill="#000000" points="511.071,323.95,515.071,314.95,511.071,318.95,507.071,314.95,511.071,323.95" style="stroke: #000000; stroke-width: 1.0;"/><!--MD5=[6a3ddaf918cbbc5f78ab92032c12e066]
link _app_module to _app_routing_module--><path d="M226.903,397 C280.744,397 371.329,397 435.532,397 " fill="none" id="_app_module-&gt;_app_routing_module" style="stroke: #000000; stroke-width: 0.5;"/><polygon fill="#000000" points="440.883,397,431.883,393,435.883,397,431.883,401,440.883,397" style="stroke: #000000; stroke-width: 0.5;"/><!--MD5=[ba9a086ca93d87fe416957c5bd91b86f]
link _app_module to _app_component--><path d="M226.903,389.27 C284.282,379.49 383.395,362.59 447.833,351.61 " fill="none" id="_app_module-&gt;_app_component" style="stroke: #000000; stroke-width: 0.5;"/><polygon fill="#000000" points="452.797,350.76,443.2529,348.329,447.8681,351.6001,444.597,356.2152,452.797,350.76" style="stroke: #000000; stroke-width: 0.5;"/><!--MD5=[623688979f6d9ff77a021e203c633ff4]
link _app_module to _core_module--><path d="M226.903,404.73 C287.249,415.02 393.755,433.17 457.538,444.045 " fill="none" id="_app_module-&gt;_core_module" style="stroke: #000000; stroke-width: 0.5;"/><polygon fill="#000000" points="462.814,444.944,454.614,439.4888,457.8851,444.1039,453.2699,447.375,462.814,444.944" style="stroke: #000000; stroke-width: 0.5;"/><!--MD5=[c8c510411c0be41636b0fb7c781e5bdb]
link _auth_intersector to _auth_service--><path d="M1084.29,905 C1112.28,905 1145.56,905 1172.67,905 " fill="none" id="_auth_intersector-&gt;_auth_service" style="stroke: #000000; stroke-width: 0.5;"/><polygon fill="#000000" points="1178.01,905,1169.01,901,1173.01,905,1169.01,909,1178.01,905" style="stroke: #000000; stroke-width: 0.5;"/><!--MD5=[b74c2ae1eeb4f33b6b9298a7b2bc980a]
link _data_providers_module to _auth_intersector--><path d="M591.79,943.838 C693.579,934.693 867.648,919.054 960.819,910.683 " fill="none" id="_data_providers_module-&gt;_auth_intersector" style="stroke: #000000; stroke-width: 0.5;"/><polygon fill="#000000" points="966.016,910.216,956.6943,907.0369,961.036,910.6631,957.4098,915.0048,966.016,910.216" style="stroke: #000000; stroke-width: 0.5;"/><!--MD5=[2c6c09a1e4b408c7ed86af8c1d48ba5f]
link _data_providers_module to _backend_services--><path d="M591.94,951.444 C766.641,952.414 1180.14,954.712 1343.74,955.62 " fill="none" id="_data_providers_module-&gt;_backend_services" style="stroke: #000000; stroke-width: 0.5;"/><polygon fill="#000000" points="1348.98,955.649,1340.003,951.5976,1343.9801,955.6204,1339.9573,959.5975,1348.98,955.649" style="stroke: #000000; stroke-width: 0.5;"/><!--MD5=[ebc97c5e488cba62a5e9d2d7bcf80a1b]
link _folder_routing_module to _folder_page--><path d="M256.935,234.28 C319.327,227.06 406.204,217.02 460.242,210.76 " fill="none" id="_folder_routing_module-&gt;_folder_page" style="stroke: #000000; stroke-width: 0.5;"/><polygon fill="#000000" points="465.367,210.17,455.9665,207.2323,460.4002,210.7454,456.8871,215.1791,465.367,210.17" style="stroke: #000000; stroke-width: 0.5;"/><!--MD5=[902b7bb419b9ead42a5c7abb9e6b71ce]
link _folder_module to _folder_routing_module--><path d="M180.571,204.04 C180.571,209.62 180.571,215.21 180.571,220.8 " fill="none" id="_folder_module-&gt;_folder_routing_module" style="stroke: #000000; stroke-width: 1.0;"/><polygon fill="#000000" points="180.571,225.94,184.571,216.94,180.571,220.94,176.571,216.94,180.571,225.94" style="stroke: #000000; stroke-width: 1.0;"/><!--MD5=[019e9973dee61ecec248f46cad85fce5]
link _folder_module to _folder_page--><path d="M241.441,190.28 C304.135,193.72 401.472,199.05 460.159,202.27 " fill="none" id="_folder_module-&gt;_folder_page" style="stroke: #000000; stroke-width: 1.0;"/><polygon fill="#000000" points="465.365,202.55,456.5983,198.0617,460.3725,202.2753,456.1589,206.0496,465.365,202.55" style="stroke: #000000; stroke-width: 1.0;"/><!--MD5=[49d82cc179279774c0f16d837713b4e0]
link <b>main</b> to _app_module--><path d="M154.478,291.2 C116.632,287.39 48.0838,287.29 21.071,331 C-5.6928,374.3 73.2937,389.2 129.47,394.32 " fill="none" id="&lt;b&gt;main&lt;/b&gt;-&gt;_app_module" style="stroke: #000000; stroke-width: 1.0;"/><polygon fill="#000000" points="134.491,394.76,125.8721,389.9941,129.5099,394.3261,125.1778,397.9639,134.491,394.76" style="stroke: #000000; stroke-width: 1.0;"/><!--MD5=[88eb4199d7809f82c2fb8c569468a51b]
link <b>main</b> to environment--><path d="M180.571,308.21 C180.571,313.82 180.571,319.44 180.571,325.06 " fill="none" id="&lt;b&gt;main&lt;/b&gt;-&gt;environment" style="stroke: #000000; stroke-width: 1.0;"/><polygon fill="#000000" points="180.571,330.22,184.571,321.22,180.571,325.22,176.571,321.22,180.571,330.22" style="stroke: #000000; stroke-width: 1.0;"/><!--MD5=[d699256656a316ea248c6e2ca8d28329]
link _server_card_list_item_component to _server_model--><path d="M621.093,1198.23 C739.51,1201.804 934.238,1207.873 1102.07,1214 C1124.22,1214.809 1148.63,1215.787 1169.78,1216.663 " fill="none" id="_server_card_list_item_component-&gt;_server_model" style="stroke: #000000; stroke-width: 0.5;"/><polygon fill="#000000" points="1174.81,1216.872,1165.9772,1212.5152,1169.814,1216.672,1165.6572,1220.5088,1174.81,1216.872" style="stroke: #000000; stroke-width: 0.5;"/><!--MD5=[f73ef45c28aa19aaf14b2cb7ec7c21b8]
link <b>server-card-list-item.component.spec</b> to _server_card_list_item_component--><path d="M511.071,1155.526 C511.071,1161.212 511.071,1166.898 511.071,1172.583 " fill="none" id="&lt;b&gt;server-card-list-item.component.spec&lt;/b&gt;-&gt;_server_card_list_item_component" style="stroke: #000000; stroke-width: 1.0;"/><polygon fill="#000000" points="511.071,1177.805,515.071,1168.805,511.071,1172.805,507.071,1168.805,511.071,1177.805" style="stroke: #000000; stroke-width: 1.0;"/><!--MD5=[88facb66a08ecdcd7bfcab7f07237ce7]
link _servers_data_servece to _backend_services--><path d="M1081.38,1057.95 C1153.18,1035.814 1278.03,997.322 1352.07,974.499 " fill="none" id="_servers_data_servece-&gt;_backend_services" style="stroke: #000000; stroke-width: 0.5;"/><polygon fill="#000000" points="1356.87,973.018,1347.0914,971.8437,1352.0914,974.4894,1349.4457,979.4894,1356.87,973.018" style="stroke: #000000; stroke-width: 0.5;"/><!--MD5=[a25ed6f6fe79c8d4ee4739a91dc600b1]
link _servers_data_servece to _server_model--><path d="M1049.62,1092.084 C1086.48,1118.824 1157.64,1170.444 1196.89,1198.92 " fill="none" id="_servers_data_servece-&gt;_server_model" style="stroke: #000000; stroke-width: 0.5;"/><polygon fill="#000000" points="1201.05,1201.938,1196.1022,1193.4222,1196.9988,1199.0075,1191.4134,1199.9041,1201.05,1201.938" style="stroke: #000000; stroke-width: 0.5;"/><!--MD5=[2f52bc87c2b1a035a448d16bdf539f82]
link _servers_page_facade_service to _server_model--><path d="M904.221,1239.618 C987.213,1234.277 1102.56,1226.853 1169.81,1222.524 " fill="none" id="_servers_page_facade_service-&gt;_server_model" style="stroke: #000000; stroke-width: 0.5;"/><polygon fill="#000000" points="1174.97,1222.192,1165.7364,1218.7656,1169.9799,1222.5063,1166.2392,1226.7498,1174.97,1222.192" style="stroke: #000000; stroke-width: 0.5;"/><!--MD5=[6de4c9da31e1f753984ef5c9f1003559]
link _servers_page_facade_service to _servers_data_servece--><path d="M826.87,1228.979 C867.431,1197.308 954.325,1129.459 997.951,1095.395 " fill="none" id="_servers_page_facade_service-&gt;_servers_data_servece" style="stroke: #000000; stroke-width: 0.5;"/><polygon fill="#000000" points="1002.035,1092.206,992.4794,1094.5915,998.0939,1095.2829,997.4025,1100.8974,1002.035,1092.206" style="stroke: #000000; stroke-width: 0.5;"/><!--MD5=[6b8fe7528b4c623c8007316526e75f0e]
link _servers_routing_module to _servers_page--><path d="M262.352,1309 C322.163,1309 402.087,1309 454.771,1309 " fill="none" id="_servers_routing_module-&gt;_servers_page" style="stroke: #000000; stroke-width: 0.5;"/><polygon fill="#000000" points="459.783,1309,450.783,1305,454.783,1309,450.783,1313,459.783,1309" style="stroke: #000000; stroke-width: 0.5;"/><!--MD5=[5d9f2f12463a4eba04dfe97438eb4b32]
link _servers_module to _data_providers_module--><path d="M220.057,1038.926 C256.2,1023.357 312.051,1000.489 362.071,985 C382.355,978.719 404.525,973.025 425.387,968.17 " fill="none" id="_servers_module-&gt;_data_providers_module" style="stroke: #000000; stroke-width: 1.0;"/><polygon fill="#000000" points="430.378,967.018,420.7091,965.1438,425.506,968.1421,422.5077,972.939,430.378,967.018" style="stroke: #000000; stroke-width: 1.0;"/><!--MD5=[91ce31b37514943e23d6054ecb1daa56]
link _servers_module to _server_card_list_item_component--><path d="M246.746,1059.608 C271.065,1063.673 297.691,1071.647 318.071,1087 C350.482,1111.416 329.222,1143.177 362.071,1167 C372.256,1174.387 383.841,1179.986 395.938,1184.208 " fill="none" id="_servers_module-&gt;_server_card_list_item_component" style="stroke: #000000; stroke-width: 1.0;"/><polygon fill="#000000" points="400.781,1185.818,393.5018,1179.1838,396.0362,1184.2411,390.9788,1186.7755,400.781,1185.818" style="stroke: #000000; stroke-width: 1.0;"/><!--MD5=[5b2ead4bc5aa756c38e49c0e8b7af8bf]
link _servers_module to _servers_data_servece--><path d="M246.814,1042.038 C280.966,1035.431 323.579,1028.281 362.071,1025 C494.037,1013.75 527.935,1015.967 660.071,1025 C757.798,1031.681 869.259,1048.338 942.812,1060.599 " fill="none" id="_servers_module-&gt;_servers_data_servece" style="stroke: #000000; stroke-width: 1.0;"/><polygon fill="#000000" points="948.041,1061.474,939.8251,1056.0427,943.1096,1060.6483,938.504,1063.9328,948.041,1061.474" style="stroke: #000000; stroke-width: 1.0;"/><!--MD5=[08985f0895c8485a7332377a335bf44f]
link _servers_module to _servers_routing_module--><path d="M114.451,1053.681 C79.5936,1056.487 40.1899,1067.065 21.071,1098 C0.9764,1130.514 0.9764,1237.486 21.071,1270 C36.4425,1294.872 65.0998,1306.074 93.9296,1310.568 " fill="none" id="_servers_module-&gt;_servers_routing_module" style="stroke: #000000; stroke-width: 1.0;"/><polygon fill="#000000" points="98.9323,1311.282,90.5877,1306.0506,93.9825,1310.5756,89.4574,1313.9703,98.9323,1311.282" style="stroke: #000000; stroke-width: 1.0;"/><!--MD5=[dd2e38a613ed39a0b7c5728e35c2ca85]
link _servers_module to _servers_page--><path d="M246.731,1056.444 C272.07,1059.944 299.429,1068.353 318.071,1087 C380.579,1149.526 298.437,1219.62 362.071,1281 C386.268,1304.34 423.488,1311.299 454.547,1312.444 " fill="none" id="_servers_module-&gt;_servers_page" style="stroke: #000000; stroke-width: 1.0;"/><polygon fill="#000000" points="459.872,1312.586,450.9827,1308.3457,454.8738,1312.4517,450.7678,1316.3429,459.872,1312.586" style="stroke: #000000; stroke-width: 1.0;"/><!--MD5=[08602177ca4f84686277145c22bb85ac]
link _servers_module to _shared_module--><path d="M246.865,1055.404 C306.166,1054.862 392.906,1054.07 450.391,1053.545 " fill="none" id="_servers_module-&gt;_shared_module" style="stroke: #000000; stroke-width: 1.0;"/><polygon fill="#000000" points="455.514,1053.498,446.4778,1049.5804,450.5142,1053.5437,446.5509,1057.5801,455.514,1053.498" style="stroke: #000000; stroke-width: 1.0;"/><!--MD5=[f3a7d577dbfb70c777ffcaecfccd2b07]
link _servers_page to _server_model--><path d="M562.326,1305.742 C637.036,1300.621 781.737,1289.633 904.071,1274 C992.565,1262.692 1014.16,1256.219 1102.07,1241 C1124.25,1237.161 1148.65,1232.804 1169.81,1228.987 " fill="none" id="_servers_page-&gt;_server_model" style="stroke: #000000; stroke-width: 0.5;"/><polygon fill="#000000" points="1174.83,1228.079,1165.2638,1225.7364,1169.9091,1228.9646,1166.6808,1233.6099,1174.83,1228.079" style="stroke: #000000; stroke-width: 0.5;"/><!--MD5=[55d810ac7f32662132e0d57c8096af72]
link _servers_page to _servers_page_facade_service--><path d="M562.214,1300.196 C590.937,1294.983 627.614,1288.037 660.071,1281 C683.41,1275.94 708.761,1269.911 731.547,1264.295 " fill="none" id="_servers_page-&gt;_servers_page_facade_service" style="stroke: #000000; stroke-width: 0.5;"/><polygon fill="#000000" points="736.67,1263.028,726.9736,1261.302,731.8158,1264.2266,728.8912,1269.0688,736.67,1263.028" style="stroke: #000000; stroke-width: 0.5;"/><!--MD5=[692f08a6546ddf8cea370f4f6c3c6788]
link <b>servers.page.spec</b> to _servers_page--><path d="M511.071,1270.268 C511.071,1275.721 511.071,1281.173 511.071,1286.625 " fill="none" id="&lt;b&gt;servers.page.spec&lt;/b&gt;-&gt;_servers_page" style="stroke: #000000; stroke-width: 1.0;"/><polygon fill="#000000" points="511.071,1291.633,515.071,1282.633,511.071,1286.633,507.071,1282.633,511.071,1291.633" style="stroke: #000000; stroke-width: 1.0;"/><!--MD5=[5a2cfe0f16d021e64837602be31d5fd6]
link <b>settings-edit-form.component.spec</b> to _settings_edit_form_component--><path d="M180.571,1214.322 C180.571,1219.791 180.571,1225.259 180.571,1230.728 " fill="none" id="&lt;b&gt;settings-edit-form.component.spec&lt;/b&gt;-&gt;_settings_edit_form_component" style="stroke: #000000; stroke-width: 1.0;"/><polygon fill="#000000" points="180.571,1235.75,184.571,1226.75,180.571,1230.75,176.571,1226.75,180.571,1235.75" style="stroke: #000000; stroke-width: 1.0;"/><!--MD5=[dfa19fa73bab9e015c120d736819d339]
link _settings_routing_module to _settings_page--><path d="M263.618,1402.4929 C322.714,1407.8898 400.938,1415.0335 453.255,1419.8113 " fill="none" id="_settings_routing_module-&gt;_settings_page" style="stroke: #000000; stroke-width: 0.5;"/><polygon fill="#000000" points="458.236,1420.2662,449.638,1415.4626,453.2568,1419.8105,448.9089,1423.4293,458.236,1420.2662" style="stroke: #000000; stroke-width: 0.5;"/><!--MD5=[58e6c3c10ebcfd4abcdbaee035e2a5ee]
link _settings_module to _settings_edit_form_component--><path d="M111.906,1111.43 C77.6572,1113.841 39.6547,1123.931 21.071,1154 C7.0515,1176.684 7.0515,1191.316 21.071,1214 C32.7748,1232.937 52.1807,1243.95 73.5005,1250.111 " fill="none" id="_settings_module-&gt;_settings_edit_form_component" style="stroke: #000000; stroke-width: 1.0;"/><polygon fill="#000000" points="78.3681,1251.427,70.7237,1245.217,73.5413,1250.1222,68.6361,1252.9399,78.3681,1251.427" style="stroke: #000000; stroke-width: 1.0;"/><!--MD5=[e0b96ac971cd1c343690865b778164df]
link _settings_module to _settings_routing_module--><path d="M111.906,1111.43 C77.6572,1113.841 39.6547,1123.931 21.071,1154 C0.9764,1186.514 0.9764,1293.486 21.071,1326 C36.89,1351.5958 64.5905,1367.7207 92.5143,1377.8693 " fill="none" id="_settings_module-&gt;_settings_routing_module" style="stroke: #000000; stroke-width: 1.0;"/><polygon fill="#000000" points="97.3605,1379.5713,90.1945,1372.8149,92.643,1377.9144,87.5435,1380.3629,97.3605,1379.5713" style="stroke: #000000; stroke-width: 1.0;"/><!--MD5=[83d67a8f6376140812787391bb38234d]
link _settings_module to _settings_page--><path d="M249.21,1113.656 C273.999,1116.701 300.304,1124.678 318.071,1143 C397.827,1225.251 281.686,1315.363 362.071,1397 C385.399,1420.6913 422.062,1427.7563 453.06,1428.8664 " fill="none" id="_settings_module-&gt;_settings_page" style="stroke: #000000; stroke-width: 1.0;"/><polygon fill="#000000" points="458.379,1429.0013,449.4836,1424.7737,453.3806,1428.8742,449.2802,1432.7712,458.379,1429.0013" style="stroke: #000000; stroke-width: 1.0;"/><!--MD5=[56338227a49ec8b330e85df4fd98316c]
link _settings_module to _shared_module--><path d="M249.238,1102.229 C308.491,1091.045 393.753,1074.953 450.476,1064.248 " fill="none" id="_settings_module-&gt;_shared_module" style="stroke: #000000; stroke-width: 1.0;"/><polygon fill="#000000" points="455.533,1063.293,445.9473,1061.0314,450.6197,1064.2202,447.4309,1068.8926,455.533,1063.293" style="stroke: #000000; stroke-width: 1.0;"/><!--MD5=[bb2a27b178f4c996c0c681665d097e3e]
link <b>settings.page.spec</b> to _settings_page--><path d="M511.071,1385.7976 C511.071,1391.408 511.071,1397.0184 511.071,1402.6288 " fill="none" id="&lt;b&gt;settings.page.spec&lt;/b&gt;-&gt;_settings_page" style="stroke: #000000; stroke-width: 1.0;"/><polygon fill="#000000" points="511.071,1407.7812,515.071,1398.7812,511.071,1402.7812,507.071,1398.7812,511.071,1407.7812" style="stroke: #000000; stroke-width: 1.0;"/><!--MD5=[437267ce327058f723eb29482c41f8e2]
link <b>environment.prod</b> to _nx_welcome_component--><!--MD5=[98c0b1be8c1a8874b834badeb42c89ba]
link _nx_welcome_component to <b>polyfills</b>--><!--MD5=[c9656e832bdb76e974115fea293cbb00]
link <b>environment.prod</b> to _settings_facade_service--><!--MD5=[3d49a601cc596bd36a2d0c74b4733fec]
link _settings_facade_service to _storage_service--><!--MD5=[1a9110cf466efed52ef683213c4fa526]
link _storage_service to <b>test-setup</b>--><script type="text/plantuml"><![CDATA[MD5=[4c818467e4145e2d5741f29a81d6c838]
@startuml

scale max 1920 width
left to right direction

skinparam nodesep 22
skinparam ranksep 44
skinparam monochrome true
skinparam shadowing false
skinparam defaultFontName Tahoma
skinparam defaultFontSize 12
skinparam roundCorner 6
skinparam dpi 150
skinparam arrowColor black
skinparam arrowThickness 0.5
skinparam packageTitleAlignment left

skinparam usecase {
  borderThickness 0.5
}

skinparam rectangle {
  borderThickness 0.5
}

skinparam component {
  borderThickness 1
}


rectangle "account-balance-card.component" as _account_balance_card_component
(<b>account-balance-card.component.spec</b>)
rectangle "account-data.service" as _account_data_service
rectangle "account-info-card.component" as _account_info_card_component
(<b>account-info-card.component.spec</b>)
rectangle "account-page.facade.service" as _account_page_facade_service
rectangle "account-routing.module" as _account_routing_module
rectangle "account.model" as _account_model
rectangle "<b>account.module</b>" as _account_module
rectangle "account.page" as _account_page
(<b>account.page.spec</b>)
rectangle "app-routing.module" as _app_routing_module
rectangle "app.component" as _app_component
(<b>app.component.spec</b>)
rectangle "app.module" as _app_module
rectangle "auth.intersector" as _auth_intersector
rectangle "auth.service" as _auth_service
rectangle "backend.services" as _backend_services
rectangle "core.module" as _core_module
rectangle "current-balance.model" as _current_balance_model
rectangle "data-providers.module" as _data_providers_module
(environment)
(<b>environment.prod</b>)
rectangle "folder-routing.module" as _folder_routing_module
rectangle "<b>folder.module</b>" as _folder_module
rectangle "folder.page" as _folder_page
(<b>main</b>)
rectangle "<b>nx-welcome.component</b>" as _nx_welcome_component
(<b>polyfills</b>)
rectangle "server-card-list-item.component" as _server_card_list_item_component
(<b>server-card-list-item.component.spec</b>)
rectangle "server.model" as _server_model
rectangle "servers-data.servece" as _servers_data_servece
rectangle "servers-page-facade.service" as _servers_page_facade_service
rectangle "servers-routing.module" as _servers_routing_module
rectangle "<b>servers.module</b>" as _servers_module
rectangle "servers.page" as _servers_page
(<b>servers.page.spec</b>)
rectangle "settings-edit-form.component" as _settings_edit_form_component
(<b>settings-edit-form.component.spec</b>)
rectangle "settings-routing.module" as _settings_routing_module
rectangle "<b>settings.facade.service</b>" as _settings_facade_service
rectangle "<b>settings.module</b>" as _settings_module
rectangle "settings.page" as _settings_page
(<b>settings.page.spec</b>)
rectangle "shared.module" as _shared_module
rectangle "<b>storage.service</b>" as _storage_service
(<b>test-setup</b>)


_account_balance_card_component ---> _current_balance_model
(<b>account-balance-card.component.spec</b>) -[thickness=1]> _account_balance_card_component
_account_data_service --> _account_model
_account_data_service ---> _backend_services
_account_data_service --> _current_balance_model
_account_info_card_component ---> _account_model
(<b>account-info-card.component.spec</b>) -[thickness=1]> _account_info_card_component
_account_page_facade_service --> _account_data_service
_account_page_facade_service --> _account_model
_account_page_facade_service --> _current_balance_model
_account_routing_module --> _account_page
_account_module --[thickness=1]> _account_balance_card_component
_account_module -[thickness=1]> _account_data_service
_account_module --[thickness=1]> _account_info_card_component
_account_module -[thickness=1]> _account_routing_module
_account_module -[thickness=1]> _account_page
_account_module --[thickness=1]> _data_providers_module
_account_module --[thickness=1]> _shared_module
_account_page --> _account_page_facade_service
(<b>account.page.spec</b>) -[thickness=1]> _account_page
(<b>app.component.spec</b>) -[thickness=1]> _app_component
_app_module --> _app_routing_module
_app_module --> _app_component
_app_module --> _core_module
_auth_intersector --> _auth_service
_data_providers_module ---> _auth_intersector
_data_providers_module --> _backend_services
_folder_routing_module --> _folder_page
_folder_module -[thickness=1]> _folder_routing_module
_folder_module -[thickness=1]> _folder_page
(<b>main</b>) -[thickness=1]> _app_module
(<b>main</b>) -[thickness=1]> (environment)
_server_card_list_item_component ---> _server_model
(<b>server-card-list-item.component.spec</b>) -[thickness=1]> _server_card_list_item_component
_servers_data_servece ---> _backend_services
_servers_data_servece --> _server_model
_servers_page_facade_service --> _server_model
_servers_page_facade_service --> _servers_data_servece
_servers_routing_module --> _servers_page
_servers_module --[thickness=1]> _data_providers_module
_servers_module --[thickness=1]> _server_card_list_item_component
_servers_module -[thickness=1]> _servers_data_servece
_servers_module -[thickness=1]> _servers_routing_module
_servers_module -[thickness=1]> _servers_page
_servers_module --[thickness=1]> _shared_module
_servers_page --> _server_model
_servers_page --> _servers_page_facade_service
(<b>servers.page.spec</b>) -[thickness=1]> _servers_page
(<b>settings-edit-form.component.spec</b>) -[thickness=1]> _settings_edit_form_component
_settings_routing_module --> _settings_page
_settings_module -[thickness=1]> _settings_edit_form_component
_settings_module -[thickness=1]> _settings_routing_module
_settings_module -[thickness=1]> _settings_page
_settings_module --[thickness=1]> _shared_module
(<b>settings.page.spec</b>) -[thickness=1]> _settings_page

@enduml


' View and edit on https://arkit.pro
]]></script></g></svg>